# xmcd
#
# Track frame offsets:
#	150
#	14802
#	26342
#	35742
#	49190
#	59177
#	76457
#	88700
#	96965
#	105417
#	120580
#	134557
#	144590
#	156500
#	167042
#	179725
#	190667
#	201472
#
# Disc length: 2852 seconds
#
# Revision: 0
# Processed by: cddbd v1.5.2PL0 Copyright (c) Steve Scherf et al.
# Submitted via: audiograbber 1.83.01
#
DISCID=0f0b2212
DTITLE=Various Artist - Die schönsten deutschen Volkslieder
DYEAR=1900
DGENRE=Chorus
TTITLE0=Tölzer Knabenchor - Hoch auf dem gelben Wagen
TTITLE1=Chor der Deutschen Weinstraße - Das Wandern ist des Müllers Lust
TTITLE2=Der Stuttgarter Liederkranz - Sein Sträußchen am Hute (Der Wanderer)
TTITLE3=René Kollo and RIAS-Orchester mit Großem Chor - Im Krug zum grünen Kranze
TTITLE4=Chor and Stabsmusikkorps der Bundeswehr - Wohlan, die Zeit ist 'kommen
TTITLE5=Hermann Prey and Tölzer Knabenchor - Ännchen von Tharau
TTITLE6=Männerchor der BASF and Waldhornquartett des SWF - Auf, auf zum fröhliche
TTITLE6=n Jagen
TTITLE7=Die Westfälischen Nachtigallen - Das Lieben bringt groß Freud
TTITLE8=Chor der Deutschen Weinstraße - Jetzt kommen die lustigen Tage
TTITLE9=Günter Wewel - Kein schöner Land
TTITLE10=Tölzer Knabenchor - Schwarzbraun ist die Haselnuß
TTITLE11=Chor and Stabsmusikkorps der Bundeswehr - Horch, was kommt von draußen r
TTITLE11=ein
TTITLE12=René Kollo and RIAS-Orchester mit Großem Chor - Wer recht in Freuden wan
TTITLE12=dern will
TTITLE13=Tölzer Knabenchor - Wenn die bunten Fahnen wehen
TTITLE14=Medium Terzett - Hohe Tannen
TTITLE15=Kammerchor des Stuttgarter Liederkranzes - Wenn alle Brünnleinh fließe
TTITLE15=n (Heimliche Liebe)
TTITLE16=Freddy Breck - Mein Vater war ein Wandersmann
TTITLE17=Steinfeld-Chor - Als wir jüngst in Regensburg waren
EXTD=
EXTT0=
EXTT1=
EXTT2=
EXTT3=
EXTT4=
EXTT5=
EXTT6=
EXTT7=
EXTT8=
EXTT9=
EXTT10=
EXTT11=
EXTT12=
EXTT13=
EXTT14=
EXTT15=
EXTT16=
EXTT17=
PLAYORDER=
